<?xml version="1.0" encoding="UTF-8" standalone="no"?>
<!-- Created with Inkscape (http://www.inkscape.org/) -->

<svg
   width="350mm"
   height="160mm"
   viewBox="0 0 350 160"
   version="1.1"
   id="svg1"
   xml:space="preserve"
   inkscape:version="1.4.3 (0d15f75, 2025-12-25)"
   sodipodi:docname="IC-8.svg"
   xmlns:inkscape="http://www.inkscape.org/namespaces/inkscape"
   xmlns:sodipodi="http://sodipodi.sourceforge.net/DTD/sodipodi-0.dtd"
   xmlns="http://www.w3.org/2000/svg"
   xmlns:svg="http://www.w3.org/2000/svg"><sodipodi:namedview
     id="namedview1"
     pagecolor="#ffffff"
     bordercolor="#000000"
     borderopacity="0.25"
     inkscape:showpageshadow="2"
     inkscape:pageopacity="0.0"
     inkscape:pagecheckerboard="0"
     inkscape:deskcolor="#d1d1d1"
     inkscape:document-units="mm"
     inkscape:zoom="0.28833007"
     inkscape:cx="773.41917"
     inkscape:cy="395.3802"
     inkscape:window-width="1108"
     inkscape:window-height="813"
     inkscape:window-x="-1"
     inkscape:window-y="33"
     inkscape:window-maximized="0"
     inkscape:current-layer="g4" /><defs
     id="defs1"><filter
       style="color-interpolation-filters:sRGB"
       inkscape:label="Invert"
       id="filter29"
       x="0"
       y="0"
       width="1"
       height="1"><feColorMatrix
         values="1 0 0 0 0 0 1 0 0 0 0 0 1 0 0 -0.21 -0.72 -0.07 2 0 "
         result="fbSourceGraphic"
         id="feColorMatrix29" /><feColorMatrix
         result="fbSourceGraphicAlpha"
         in="fbSourceGraphic"
         values="0 0 0 -1 0 0 0 0 -1 0 0 0 0 -1 0 0 0 0 1 0"
         id="feColorMatrix30" /><feColorMatrix
         id="feColorMatrix31"
         values="-1 0 0 0 1 0 -1 0 0 1 0 0 -1 0 1 0.21 0.72 0.07 1 0 "
         result="color2"
         in="fbSourceGraphic" /></filter></defs><g
     inkscape:label="Слой 1"
     inkscape:groupmode="layer"
     id="layer1"><g
       id="g1"
       transform="translate(141.62134,-57.262832)"><g
         inkscape:label="Слой 1"
         id="layer1-4"
         style="display:inline"><g
           id="g4"
           style="display:inline"><g
             id="g3"
             transform="translate(-12.879454,52.21051)"
             style="fill:#ffffff"><path
               id="path1"
               style="opacity:1;fill:#00e3aa;fill-opacity:1;stroke:#ffffff;stroke-width:0;stroke-linecap:round;stroke-linejoin:round"
               d="m -97.052948,23.908024 a 34.784202,33.390574 0 0 0 -15.113592,14.619672 l 12.708914,6.727343 a 20.445186,19.679983 0 0 1 9.46014,-9.356381 z" /><path
               id="path2"
               style="opacity:1;fill:#ffffff;stroke:#ffffff;stroke-width:0;stroke-linecap:round;stroke-linejoin:round"
               d="m -80.635384,19.27727 -0.30965,14.149183 a 20.189992,20.413537 0 0 1 0.07741,0 20.189992,20.413537 0 0 1 20.189223,20.413062 20.189992,20.413537 0 0 1 -20.189223,20.413062 20.189992,20.413537 0 0 1 -20.191026,-20.413062 20.189992,20.413537 0 0 1 0,-0.03605 l -14.37406,0.385967 a 34.35003,34.635183 0 0 0 34.349046,34.354829 34.35003,34.635183 0 0 0 34.349043,-34.636192 34.35003,34.635183 0 0 0 -33.900755,-34.63078 z" /><g
               id="g2"
               style="fill:#ffffff"
               transform="matrix(3.5428329,0,0,3.5935209,-185.56232,154.19096)"><path
                 id="path2-5"
                 style="fill:#ffffff;stroke:#ffffff;stroke-width:0;stroke-linecap:round;stroke-linejoin:round"
                 d="m 54.86538,-25.751579 -2.9413,-0.346014 c 1.486547,0.05531 -1.103081,0.210053 -1.107781,0.215643 -3.338453,4.8083 -6.898288,4.518541 -9.366346,2.474636 -2.467963,-2.044018 -2.810139,-5.66467 -0.764287,-8.08713 2.045948,-2.422639 5.705466,-2.729563 8.173679,-0.685529 l 0.340149,0.07307 2.685947,-2.860413 c -4.457419,-4.146155 -10.827872,-3.263086 -14.288956,0.834843 -3.480879,4.121574 -2.907887,10.27412 1.279814,13.742095 4.14894,3.435792 9.6529,2.802633 13.404155,-0.638863 1.396392,-1.574112 2.111442,-3.148225 2.584926,-4.722338 z"
                 sodipodi:nodetypes="cccccccccccc" /></g></g><text
             xml:space="preserve"
             style="font-weight:bold;font-size:56.7118px;line-height:0;font-family:Arial;-inkscape-font-specification:'Arial, Bold';letter-spacing:0px;writing-mode:lr-tb;direction:ltr;fill:#ffffff;stroke:none;stroke-width:3.53667;stroke-linecap:round;stroke-linejoin:round"
             x="-114.19695"
             y="214.83716"
             id="text1"
             transform="scale(1.0885141,0.91868356)"><tspan
               sodipodi:role="line"
               id="tspan1"
               style="fill:#ffffff;stroke:none;stroke-width:3.53667"
               x="-114.19695"
               y="214.83716">АИСИ ЭЙТ</tspan><tspan
               sodipodi:role="line"
               style="fill:#ffffff;stroke:none;stroke-width:3.53667"
               x="-114.19695"
               y="214.83716"
               id="tspan2" /></text><path
             id="path3"
             style="fill:#00e3aa;fill-opacity:1;stroke-width:0.114881;stroke-linecap:round;stroke-linejoin:round"
             inkscape:transform-center-x="-0.0059139226"
             inkscape:transform-center-y="2.2988628"
             d="m -62.295033,174.77231 -0.0372,-7.6248 -0.0065,-7.2773 4.944171,0.0166 4.944171,0.0166 -4.32351,6.46643 z"
             sodipodi:nodetypes="ccccccc" /></g></g></g></g></svg>
